<svg xmlns="http://www.w3.org/2000/svg" viewBox="0 0 45 45" shape-rendering="crispEdges"><path fill="#000" d="M0 0h1v1h-1zM1 0h1v1h-1zM2 0h1v1h-1zM3 0h1v1h-1zM4 0h1v1h-1zM5 0h1v1h-1zM6 0h1v1h-1zM8 0h1v1h-1zM10 0h1v1h-1zM11 0h1v1h-1zM14 0h1v1h-1zM15 0h1v1h-1zM16 0h1v1h-1zM17 0h1v1h-1zM19 0h1v1h-1zM21 0h1v1h-1zM23 0h1v1h-1zM24 0h1v1h-1zM26 0h1v1h-1zM30 0h1v1h-1zM31 0h1v1h-1zM33 0h1v1h-1zM36 0h1v1h-1zM38 0h1v1h-1zM39 0h1v1h-1zM40 0h1v1h-1zM41 0h1v1h-1zM42 0h1v1h-1zM43 0h1v1h-1zM44 0h1v1h-1zM0 1h1v1h-1zM6 1h1v1h-1zM8 1h1v1h-1zM19 1h1v1h-1zM23 1h1v1h-1zM24 1h1v1h-1zM27 1h1v1h-1zM29 1h1v1h-1zM35 1h1v1h-1zM38 1h1v1h-1zM44 1h1v1h-1zM0 2h1v1h-1zM2 2h1v1h-1zM3 2h1v1h-1zM4 2h1v1h-1zM6 2h1v1h-1zM8 2h1v1h-1zM9 2h1v1h-1zM11 2h1v1h-1zM12 2h1v1h-1zM13 2h1v1h-1zM14 2h1v1h-1zM15 2h1v1h-1zM17 2h1v1h-1zM19 2h1v1h-1zM20 2h1v1h-1zM21 2h1v1h-1zM23 2h1v1h-1zM25 2h1v1h-1zM26 2h1v1h-1zM28 2h1v1h-1zM31 2h1v1h-1zM32 2h1v1h-1zM33 2h1v1h-1zM35 2h1v1h-1zM38 2h1v1h-1zM40 2h1v1h-1zM41 2h1v1h-1zM42 2h1v1h-1zM44 2h1v1h-1zM0 3h1v1h-1zM2 3h1v1h-1zM3 3h1v1h-1zM4 3h1v1h-1zM6 3h1v1h-1zM9 3h1v1h-1zM10 3h1v1h-1zM11 3h1v1h-1zM14 3h1v1h-1zM15 3h1v1h-1zM20 3h1v1h-1zM21 3h1v1h-1zM23 3h1v1h-1zM27 3h1v1h-1zM29 3h1v1h-1zM30 3h1v1h-1zM33 3h1v1h-1zM35 3h1v1h-1zM36 3h1v1h-1zM38 3h1v1h-1zM40 3h1v1h-1zM41 3h1v1h-1zM42 3h1v1h-1zM44 3h1v1h-1zM0 4h1v1h-1zM2 4h1v1h-1zM3 4h1v1h-1zM4 4h1v1h-1zM6 4h1v1h-1zM9 4h1v1h-1zM11 4h1v1h-1zM13 4h1v1h-1zM15 4h1v1h-1zM16 4h1v1h-1zM19 4h1v1h-1zM20 4h1v1h-1zM21 4h1v1h-1zM22 4h1v1h-1zM23 4h1v1h-1zM24 4h1v1h-1zM26 4h1v1h-1zM27 4h1v1h-1zM30 4h1v1h-1zM34 4h1v1h-1zM35 4h1v1h-1zM36 4h1v1h-1zM38 4h1v1h-1zM40 4h1v1h-1zM41 4h1v1h-1zM42 4h1v1h-1zM44 4h1v1h-1zM0 5h1v1h-1zM6 5h1v1h-1zM8 5h1v1h-1zM16 5h1v1h-1zM20 5h1v1h-1zM24 5h1v1h-1zM25 5h1v1h-1zM27 5h1v1h-1zM29 5h1v1h-1zM31 5h1v1h-1zM38 5h1v1h-1zM44 5h1v1h-1zM0 6h1v1h-1zM1 6h1v1h-1zM2 6h1v1h-1zM3 6h1v1h-1zM4 6h1v1h-1zM5 6h1v1h-1zM6 6h1v1h-1zM8 6h1v1h-1zM10 6h1v1h-1zM12 6h1v1h-1zM14 6h1v1h-1zM16 6h1v1h-1zM18 6h1v1h-1zM20 6h1v1h-1zM22 6h1v1h-1zM24 6h1v1h-1zM26 6h1v1h-1zM28 6h1v1h-1zM30 6h1v1h-1zM32 6h1v1h-1zM34 6h1v1h-1zM36 6h1v1h-1zM38 6h1v1h-1zM39 6h1v1h-1zM40 6h1v1h-1zM41 6h1v1h-1zM42 6h1v1h-1zM43 6h1v1h-1zM44 6h1v1h-1zM8 7h1v1h-1zM9 7h1v1h-1zM11 7h1v1h-1zM12 7h1v1h-1zM13 7h1v1h-1zM16 7h1v1h-1zM18 7h1v1h-1zM19 7h1v1h-1zM20 7h1v1h-1zM24 7h1v1h-1zM25 7h1v1h-1zM26 7h1v1h-1zM28 7h1v1h-1zM30 7h1v1h-1zM32 7h1v1h-1zM33 7h1v1h-1zM35 7h1v1h-1zM36 7h1v1h-1zM2 8h1v1h-1zM3 8h1v1h-1zM4 8h1v1h-1zM6 8h1v1h-1zM8 8h1v1h-1zM10 8h1v1h-1zM12 8h1v1h-1zM13 8h1v1h-1zM15 8h1v1h-1zM16 8h1v1h-1zM18 8h1v1h-1zM19 8h1v1h-1zM20 8h1v1h-1zM21 8h1v1h-1zM22 8h1v1h-1zM23 8h1v1h-1zM24 8h1v1h-1zM25 8h1v1h-1zM26 8h1v1h-1zM27 8h1v1h-1zM30 8h1v1h-1zM31 8h1v1h-1zM33 8h1v1h-1zM34 8h1v1h-1zM37 8h1v1h-1zM38 8h1v1h-1zM39 8h1v1h-1zM42 8h1v1h-1zM43 8h1v1h-1zM44 8h1v1h-1zM0 9h1v1h-1zM1 9h1v1h-1zM2 9h1v1h-1zM3 9h1v1h-1zM5 9h1v1h-1zM7 9h1v1h-1zM10 9h1v1h-1zM11 9h1v1h-1zM12 9h1v1h-1zM13 9h1v1h-1zM14 9h1v1h-1zM15 9h1v1h-1zM17 9h1v1h-1zM19 9h1v1h-1zM20 9h1v1h-1zM22 9h1v1h-1zM24 9h1v1h-1zM27 9h1v1h-1zM29 9h1v1h-1zM30 9h1v1h-1zM31 9h1v1h-1zM35 9h1v1h-1zM36 9h1v1h-1zM37 9h1v1h-1zM39 9h1v1h-1zM40 9h1v1h-1zM41 9h1v1h-1zM42 9h1v1h-1zM44 9h1v1h-1zM1 10h1v1h-1zM2 10h1v1h-1zM4 10h1v1h-1zM6 10h1v1h-1zM7 10h1v1h-1zM8 10h1v1h-1zM9 10h1v1h-1zM10 10h1v1h-1zM12 10h1v1h-1zM14 10h1v1h-1zM15 10h1v1h-1zM16 10h1v1h-1zM19 10h1v1h-1zM20 10h1v1h-1zM22 10h1v1h-1zM23 10h1v1h-1zM33 10h1v1h-1zM34 10h1v1h-1zM35 10h1v1h-1zM36 10h1v1h-1zM38 10h1v1h-1zM43 10h1v1h-1zM1 11h1v1h-1zM3 11h1v1h-1zM5 11h1v1h-1zM8 11h1v1h-1zM9 11h1v1h-1zM10 11h1v1h-1zM12 11h1v1h-1zM15 11h1v1h-1zM16 11h1v1h-1zM17 11h1v1h-1zM19 11h1v1h-1zM22 11h1v1h-1zM23 11h1v1h-1zM26 11h1v1h-1zM27 11h1v1h-1zM29 11h1v1h-1zM30 11h1v1h-1zM31 11h1v1h-1zM32 11h1v1h-1zM33 11h1v1h-1zM40 11h1v1h-1zM42 11h1v1h-1zM43 11h1v1h-1zM44 11h1v1h-1zM1 12h1v1h-1zM5 12h1v1h-1zM6 12h1v1h-1zM8 12h1v1h-1zM9 12h1v1h-1zM13 12h1v1h-1zM14 12h1v1h-1zM15 12h1v1h-1zM23 12h1v1h-1zM25 12h1v1h-1zM27 12h1v1h-1zM28 12h1v1h-1zM30 12h1v1h-1zM34 12h1v1h-1zM35 12h1v1h-1zM37 12h1v1h-1zM39 12h1v1h-1zM41 12h1v1h-1zM0 13h1v1h-1zM1 13h1v1h-1zM2 13h1v1h-1zM3 13h1v1h-1zM4 13h1v1h-1zM5 13h1v1h-1zM7 13h1v1h-1zM8 13h1v1h-1zM9 13h1v1h-1zM10 13h1v1h-1zM11 13h1v1h-1zM13 13h1v1h-1zM14 13h1v1h-1zM15 13h1v1h-1zM18 13h1v1h-1zM20 13h1v1h-1zM23 13h1v1h-1zM24 13h1v1h-1zM25 13h1v1h-1zM27 13h1v1h-1zM28 13h1v1h-1zM30 13h1v1h-1zM32 13h1v1h-1zM36 13h1v1h-1zM41 13h1v1h-1zM42 13h1v1h-1zM43 13h1v1h-1zM44 13h1v1h-1zM2 14h1v1h-1zM6 14h1v1h-1zM7 14h1v1h-1zM9 14h1v1h-1zM14 14h1v1h-1zM18 14h1v1h-1zM20 14h1v1h-1zM22 14h1v1h-1zM26 14h1v1h-1zM28 14h1v1h-1zM29 14h1v1h-1zM33 14h1v1h-1zM34 14h1v1h-1zM35 14h1v1h-1zM37 14h1v1h-1zM38 14h1v1h-1zM39 14h1v1h-1zM41 14h1v1h-1zM1 15h1v1h-1zM3 15h1v1h-1zM4 15h1v1h-1zM5 15h1v1h-1zM8 15h1v1h-1zM14 15h1v1h-1zM15 15h1v1h-1zM18 15h1v1h-1zM19 15h1v1h-1zM23 15h1v1h-1zM24 15h1v1h-1zM26 15h1v1h-1zM28 15h1v1h-1zM31 15h1v1h-1zM32 15h1v1h-1zM36 15h1v1h-1zM39 15h1v1h-1zM40 15h1v1h-1zM41 15h1v1h-1zM42 15h1v1h-1zM6 16h1v1h-1zM9 16h1v1h-1zM10 16h1v1h-1zM11 16h1v1h-1zM14 16h1v1h-1zM15 16h1v1h-1zM16 16h1v1h-1zM18 16h1v1h-1zM19 16h1v1h-1zM21 16h1v1h-1zM22 16h1v1h-1zM24 16h1v1h-1zM26 16h1v1h-1zM29 16h1v1h-1zM30 16h1v1h-1zM33 16h1v1h-1zM35 16h1v1h-1zM37 16h1v1h-1zM43 16h1v1h-1zM0 17h1v1h-1zM2 17h1v1h-1zM4 17h1v1h-1zM5 17h1v1h-1zM11 17h1v1h-1zM12 17h1v1h-1zM13 17h1v1h-1zM15 17h1v1h-1zM17 17h1v1h-1zM19 17h1v1h-1zM22 17h1v1h-1zM24 17h1v1h-1zM25 17h1v1h-1zM27 17h1v1h-1zM30 17h1v1h-1zM32 17h1v1h-1zM36 17h1v1h-1zM41 17h1v1h-1zM42 17h1v1h-1zM43 17h1v1h-1zM44 17h1v1h-1zM3 18h1v1h-1zM4 18h1v1h-1zM5 18h1v1h-1zM6 18h1v1h-1zM7 18h1v1h-1zM8 18h1v1h-1zM9 18h1v1h-1zM10 18h1v1h-1zM12 18h1v1h-1zM13 18h1v1h-1zM14 18h1v1h-1zM18 18h1v1h-1zM20 18h1v1h-1zM21 18h1v1h-1zM29 18h1v1h-1zM33 18h1v1h-1zM34 18h1v1h-1zM35 18h1v1h-1zM37 18h1v1h-1zM38 18h1v1h-1zM39 18h1v1h-1zM42 18h1v1h-1zM0 19h1v1h-1zM1 19h1v1h-1zM2 19h1v1h-1zM5 19h1v1h-1zM7 19h1v1h-1zM9 19h1v1h-1zM12 19h1v1h-1zM15 19h1v1h-1zM17 19h1v1h-1zM21 19h1v1h-1zM23 19h1v1h-1zM24 19h1v1h-1zM25 19h1v1h-1zM28 19h1v1h-1zM30 19h1v1h-1zM31 19h1v1h-1zM32 19h1v1h-1zM36 19h1v1h-1zM39 19h1v1h-1zM40 19h1v1h-1zM41 19h1v1h-1zM42 19h1v1h-1zM0 20h1v1h-1zM1 20h1v1h-1zM2 20h1v1h-1zM4 20h1v1h-1zM5 20h1v1h-1zM6 20h1v1h-1zM7 20h1v1h-1zM8 20h1v1h-1zM9 20h1v1h-1zM11 20h1v1h-1zM12 20h1v1h-1zM13 20h1v1h-1zM18 20h1v1h-1zM19 20h1v1h-1zM20 20h1v1h-1zM21 20h1v1h-1zM22 20h1v1h-1zM23 20h1v1h-1zM24 20h1v1h-1zM28 20h1v1h-1zM35 20h1v1h-1zM36 20h1v1h-1zM37 20h1v1h-1zM38 20h1v1h-1zM39 20h1v1h-1zM40 20h1v1h-1zM43 20h1v1h-1zM4 21h1v1h-1zM8 21h1v1h-1zM10 21h1v1h-1zM11 21h1v1h-1zM16 21h1v1h-1zM18 21h1v1h-1zM20 21h1v1h-1zM24 21h1v1h-1zM25 21h1v1h-1zM30 21h1v1h-1zM32 21h1v1h-1zM33 21h1v1h-1zM35 21h1v1h-1zM36 21h1v1h-1zM40 21h1v1h-1zM41 21h1v1h-1zM42 21h1v1h-1zM43 21h1v1h-1zM44 21h1v1h-1zM2 22h1v1h-1zM3 22h1v1h-1zM4 22h1v1h-1zM6 22h1v1h-1zM8 22h1v1h-1zM14 22h1v1h-1zM15 22h1v1h-1zM18 22h1v1h-1zM19 22h1v1h-1zM20 22h1v1h-1zM22 22h1v1h-1zM24 22h1v1h-1zM30 22h1v1h-1zM34 22h1v1h-1zM36 22h1v1h-1zM38 22h1v1h-1zM40 22h1v1h-1zM41 22h1v1h-1zM42 22h1v1h-1zM0 23h1v1h-1zM1 23h1v1h-1zM4 23h1v1h-1zM8 23h1v1h-1zM9 23h1v1h-1zM10 23h1v1h-1zM12 23h1v1h-1zM13 23h1v1h-1zM18 23h1v1h-1zM20 23h1v1h-1zM24 23h1v1h-1zM25 23h1v1h-1zM27 23h1v1h-1zM28 23h1v1h-1zM29 23h1v1h-1zM30 23h1v1h-1zM32 23h1v1h-1zM33 23h1v1h-1zM36 23h1v1h-1zM40 23h1v1h-1zM41 23h1v1h-1zM42 23h1v1h-1zM0 24h1v1h-1zM2 24h1v1h-1zM3 24h1v1h-1zM4 24h1v1h-1zM5 24h1v1h-1zM6 24h1v1h-1zM7 24h1v1h-1zM8 24h1v1h-1zM10 24h1v1h-1zM11 24h1v1h-1zM12 24h1v1h-1zM17 24h1v1h-1zM18 24h1v1h-1zM19 24h1v1h-1zM20 24h1v1h-1zM21 24h1v1h-1zM22 24h1v1h-1zM23 24h1v1h-1zM24 24h1v1h-1zM25 24h1v1h-1zM28 24h1v1h-1zM31 24h1v1h-1zM34 24h1v1h-1zM35 24h1v1h-1zM36 24h1v1h-1zM37 24h1v1h-1zM38 24h1v1h-1zM39 24h1v1h-1zM40 24h1v1h-1zM0 25h1v1h-1zM4 25h1v1h-1zM8 25h1v1h-1zM9 25h1v1h-1zM12 25h1v1h-1zM13 25h1v1h-1zM16 25h1v1h-1zM17 25h1v1h-1zM19 25h1v1h-1zM25 25h1v1h-1zM26 25h1v1h-1zM27 25h1v1h-1zM30 25h1v1h-1zM31 25h1v1h-1zM32 25h1v1h-1zM35 25h1v1h-1zM36 25h1v1h-1zM37 25h1v1h-1zM41 25h1v1h-1zM42 25h1v1h-1zM44 25h1v1h-1zM3 26h1v1h-1zM4 26h1v1h-1zM6 26h1v1h-1zM9 26h1v1h-1zM11 26h1v1h-1zM13 26h1v1h-1zM14 26h1v1h-1zM15 26h1v1h-1zM16 26h1v1h-1zM18 26h1v1h-1zM19 26h1v1h-1zM21 26h1v1h-1zM22 26h1v1h-1zM23 26h1v1h-1zM25 26h1v1h-1zM29 26h1v1h-1zM31 26h1v1h-1zM33 26h1v1h-1zM34 26h1v1h-1zM36 26h1v1h-1zM39 26h1v1h-1zM40 26h1v1h-1zM43 26h1v1h-1zM1 27h1v1h-1zM3 27h1v1h-1zM4 27h1v1h-1zM5 27h1v1h-1zM9 27h1v1h-1zM10 27h1v1h-1zM11 27h1v1h-1zM12 27h1v1h-1zM13 27h1v1h-1zM16 27h1v1h-1zM19 27h1v1h-1zM21 27h1v1h-1zM22 27h1v1h-1zM25 27h1v1h-1zM27 27h1v1h-1zM28 27h1v1h-1zM29 27h1v1h-1zM30 27h1v1h-1zM31 27h1v1h-1zM32 27h1v1h-1zM35 27h1v1h-1zM37 27h1v1h-1zM38 27h1v1h-1zM42 27h1v1h-1zM4 28h1v1h-1zM5 28h1v1h-1zM6 28h1v1h-1zM7 28h1v1h-1zM10 28h1v1h-1zM13 28h1v1h-1zM14 28h1v1h-1zM15 28h1v1h-1zM17 28h1v1h-1zM21 28h1v1h-1zM22 28h1v1h-1zM23 28h1v1h-1zM24 28h1v1h-1zM28 28h1v1h-1zM29 28h1v1h-1zM30 28h1v1h-1zM36 28h1v1h-1zM39 28h1v1h-1zM40 28h1v1h-1zM41 28h1v1h-1zM44 28h1v1h-1zM2 29h1v1h-1zM4 29h1v1h-1zM5 29h1v1h-1zM7 29h1v1h-1zM9 29h1v1h-1zM10 29h1v1h-1zM11 29h1v1h-1zM13 29h1v1h-1zM17 29h1v1h-1zM18 29h1v1h-1zM21 29h1v1h-1zM24 29h1v1h-1zM25 29h1v1h-1zM28 29h1v1h-1zM29 29h1v1h-1zM32 29h1v1h-1zM33 29h1v1h-1zM36 29h1v1h-1zM38 29h1v1h-1zM41 29h1v1h-1zM42 29h1v1h-1zM43 29h1v1h-1zM44 29h1v1h-1zM0 30h1v1h-1zM2 30h1v1h-1zM3 30h1v1h-1zM6 30h1v1h-1zM8 30h1v1h-1zM13 30h1v1h-1zM15 30h1v1h-1zM18 30h1v1h-1zM19 30h1v1h-1zM24 30h1v1h-1zM26 30h1v1h-1zM27 30h1v1h-1zM28 30h1v1h-1zM30 30h1v1h-1zM34 30h1v1h-1zM37 30h1v1h-1zM40 30h1v1h-1zM42 30h1v1h-1zM0 31h1v1h-1zM1 31h1v1h-1zM3 31h1v1h-1zM4 31h1v1h-1zM5 31h1v1h-1zM7 31h1v1h-1zM8 31h1v1h-1zM11 31h1v1h-1zM12 31h1v1h-1zM14 31h1v1h-1zM17 31h1v1h-1zM18 31h1v1h-1zM19 31h1v1h-1zM20 31h1v1h-1zM22 31h1v1h-1zM26 31h1v1h-1zM29 31h1v1h-1zM32 31h1v1h-1zM35 31h1v1h-1zM36 31h1v1h-1zM38 31h1v1h-1zM39 31h1v1h-1zM41 31h1v1h-1zM42 31h1v1h-1zM0 32h1v1h-1zM1 32h1v1h-1zM2 32h1v1h-1zM3 32h1v1h-1zM5 32h1v1h-1zM6 32h1v1h-1zM8 32h1v1h-1zM9 32h1v1h-1zM11 32h1v1h-1zM13 32h1v1h-1zM15 32h1v1h-1zM16 32h1v1h-1zM17 32h1v1h-1zM19 32h1v1h-1zM20 32h1v1h-1zM21 32h1v1h-1zM25 32h1v1h-1zM26 32h1v1h-1zM31 32h1v1h-1zM40 32h1v1h-1zM43 32h1v1h-1zM0 33h1v1h-1zM3 33h1v1h-1zM4 33h1v1h-1zM5 33h1v1h-1zM7 33h1v1h-1zM9 33h1v1h-1zM10 33h1v1h-1zM11 33h1v1h-1zM12 33h1v1h-1zM14 33h1v1h-1zM16 33h1v1h-1zM18 33h1v1h-1zM21 33h1v1h-1zM22 33h1v1h-1zM24 33h1v1h-1zM25 33h1v1h-1zM26 33h1v1h-1zM27 33h1v1h-1zM29 33h1v1h-1zM30 33h1v1h-1zM32 33h1v1h-1zM33 33h1v1h-1zM35 33h1v1h-1zM36 33h1v1h-1zM37 33h1v1h-1zM38 33h1v1h-1zM39 33h1v1h-1zM41 33h1v1h-1zM42 33h1v1h-1zM44 33h1v1h-1zM4 34h1v1h-1zM6 34h1v1h-1zM7 34h1v1h-1zM9 34h1v1h-1zM10 34h1v1h-1zM11 34h1v1h-1zM13 34h1v1h-1zM14 34h1v1h-1zM15 34h1v1h-1zM17 34h1v1h-1zM20 34h1v1h-1zM21 34h1v1h-1zM22 34h1v1h-1zM24 34h1v1h-1zM26 34h1v1h-1zM28 34h1v1h-1zM29 34h1v1h-1zM30 34h1v1h-1zM31 34h1v1h-1zM34 34h1v1h-1zM36 34h1v1h-1zM43 34h1v1h-1zM1 35h1v1h-1zM2 35h1v1h-1zM3 35h1v1h-1zM4 35h1v1h-1zM7 35h1v1h-1zM8 35h1v1h-1zM9 35h1v1h-1zM10 35h1v1h-1zM11 35h1v1h-1zM19 35h1v1h-1zM20 35h1v1h-1zM21 35h1v1h-1zM22 35h1v1h-1zM23 35h1v1h-1zM25 35h1v1h-1zM26 35h1v1h-1zM27 35h1v1h-1zM28 35h1v1h-1zM29 35h1v1h-1zM32 35h1v1h-1zM35 35h1v1h-1zM37 35h1v1h-1zM38 35h1v1h-1zM39 35h1v1h-1zM42 35h1v1h-1zM44 35h1v1h-1zM0 36h1v1h-1zM3 36h1v1h-1zM4 36h1v1h-1zM6 36h1v1h-1zM7 36h1v1h-1zM9 36h1v1h-1zM10 36h1v1h-1zM11 36h1v1h-1zM13 36h1v1h-1zM15 36h1v1h-1zM17 36h1v1h-1zM19 36h1v1h-1zM20 36h1v1h-1zM21 36h1v1h-1zM22 36h1v1h-1zM23 36h1v1h-1zM24 36h1v1h-1zM27 36h1v1h-1zM29 36h1v1h-1zM30 36h1v1h-1zM31 36h1v1h-1zM36 36h1v1h-1zM37 36h1v1h-1zM38 36h1v1h-1zM39 36h1v1h-1zM40 36h1v1h-1zM41 36h1v1h-1zM8 37h1v1h-1zM10 37h1v1h-1zM12 37h1v1h-1zM13 37h1v1h-1zM14 37h1v1h-1zM16 37h1v1h-1zM17 37h1v1h-1zM19 37h1v1h-1zM20 37h1v1h-1zM24 37h1v1h-1zM25 37h1v1h-1zM30 37h1v1h-1zM31 37h1v1h-1zM32 37h1v1h-1zM33 37h1v1h-1zM36 37h1v1h-1zM40 37h1v1h-1zM41 37h1v1h-1zM42 37h1v1h-1zM44 37h1v1h-1zM0 38h1v1h-1zM1 38h1v1h-1zM2 38h1v1h-1zM3 38h1v1h-1zM4 38h1v1h-1zM5 38h1v1h-1zM6 38h1v1h-1zM9 38h1v1h-1zM10 38h1v1h-1zM11 38h1v1h-1zM13 38h1v1h-1zM14 38h1v1h-1zM16 38h1v1h-1zM17 38h1v1h-1zM18 38h1v1h-1zM20 38h1v1h-1zM22 38h1v1h-1zM24 38h1v1h-1zM25 38h1v1h-1zM26 38h1v1h-1zM27 38h1v1h-1zM30 38h1v1h-1zM31 38h1v1h-1zM34 38h1v1h-1zM36 38h1v1h-1zM38 38h1v1h-1zM40 38h1v1h-1zM43 38h1v1h-1zM0 39h1v1h-1zM6 39h1v1h-1zM11 39h1v1h-1zM12 39h1v1h-1zM16 39h1v1h-1zM17 39h1v1h-1zM19 39h1v1h-1zM20 39h1v1h-1zM24 39h1v1h-1zM25 39h1v1h-1zM27 39h1v1h-1zM28 39h1v1h-1zM29 39h1v1h-1zM32 39h1v1h-1zM36 39h1v1h-1zM40 39h1v1h-1zM42 39h1v1h-1zM0 40h1v1h-1zM2 40h1v1h-1zM3 40h1v1h-1zM4 40h1v1h-1zM6 40h1v1h-1zM8 40h1v1h-1zM13 40h1v1h-1zM14 40h1v1h-1zM15 40h1v1h-1zM16 40h1v1h-1zM17 40h1v1h-1zM20 40h1v1h-1zM21 40h1v1h-1zM22 40h1v1h-1zM23 40h1v1h-1zM24 40h1v1h-1zM25 40h1v1h-1zM26 40h1v1h-1zM28 40h1v1h-1zM30 40h1v1h-1zM31 40h1v1h-1zM35 40h1v1h-1zM36 40h1v1h-1zM37 40h1v1h-1zM38 40h1v1h-1zM39 40h1v1h-1zM40 40h1v1h-1zM41 40h1v1h-1zM44 40h1v1h-1zM0 41h1v1h-1zM2 41h1v1h-1zM3 41h1v1h-1zM4 41h1v1h-1zM6 41h1v1h-1zM8 41h1v1h-1zM12 41h1v1h-1zM13 41h1v1h-1zM14 41h1v1h-1zM18 41h1v1h-1zM19 41h1v1h-1zM21 41h1v1h-1zM23 41h1v1h-1zM24 41h1v1h-1zM25 41h1v1h-1zM29 41h1v1h-1zM30 41h1v1h-1zM31 41h1v1h-1zM38 41h1v1h-1zM39 41h1v1h-1zM40 41h1v1h-1zM41 41h1v1h-1zM42 41h1v1h-1zM0 42h1v1h-1zM2 42h1v1h-1zM3 42h1v1h-1zM4 42h1v1h-1zM6 42h1v1h-1zM8 42h1v1h-1zM9 42h1v1h-1zM12 42h1v1h-1zM13 42h1v1h-1zM18 42h1v1h-1zM19 42h1v1h-1zM20 42h1v1h-1zM21 42h1v1h-1zM22 42h1v1h-1zM24 42h1v1h-1zM25 42h1v1h-1zM27 42h1v1h-1zM29 42h1v1h-1zM30 42h1v1h-1zM31 42h1v1h-1zM33 42h1v1h-1zM34 42h1v1h-1zM35 42h1v1h-1zM36 42h1v1h-1zM37 42h1v1h-1zM43 42h1v1h-1zM0 43h1v1h-1zM6 43h1v1h-1zM10 43h1v1h-1zM12 43h1v1h-1zM14 43h1v1h-1zM15 43h1v1h-1zM17 43h1v1h-1zM21 43h1v1h-1zM22 43h1v1h-1zM24 43h1v1h-1zM28 43h1v1h-1zM29 43h1v1h-1zM30 43h1v1h-1zM31 43h1v1h-1zM32 43h1v1h-1zM33 43h1v1h-1zM36 43h1v1h-1zM37 43h1v1h-1zM40 43h1v1h-1zM42 43h1v1h-1zM0 44h1v1h-1zM1 44h1v1h-1zM2 44h1v1h-1zM3 44h1v1h-1zM4 44h1v1h-1zM5 44h1v1h-1zM6 44h1v1h-1zM9 44h1v1h-1zM11 44h1v1h-1zM13 44h1v1h-1zM17 44h1v1h-1zM18 44h1v1h-1zM22 44h1v1h-1zM23 44h1v1h-1zM25 44h1v1h-1zM26 44h1v1h-1zM28 44h1v1h-1zM29 44h1v1h-1zM33 44h1v1h-1zM34 44h1v1h-1zM36 44h1v1h-1zM38 44h1v1h-1zM41 44h1v1h-1zM43 44h1v1h-1z"/></svg>