<svg preserveAspectRatio="none" overflow="visible" style="display: block;" width="20" height="20" viewBox="0 0 20 20" fill="none" xmlns="http://www.w3.org/2000/svg">
<g id="General_icons">
<g id="Union">
<path d="M5.64445 7.12511C5.64445 6.72817 5.96614 6.40639 6.36297 6.40639H7.08149C7.47832 6.40639 7.80001 6.72817 7.80001 7.12511C7.80001 7.52205 7.47832 7.84383 7.08149 7.84383H6.36297C5.96614 7.84383 5.64445 7.52205 5.64445 7.12511Z" fill="#F8F8F8"/>
<path d="M8.51853 7.12511C8.51853 6.72817 8.84022 6.40639 9.23705 6.40639H13.5482C13.945 6.40639 14.2667 6.72817 14.2667 7.12511C14.2667 7.52205 13.945 7.84383 13.5482 7.84383H9.23705C8.84022 7.84383 8.51853 7.52205 8.51853 7.12511Z" fill="#F8F8F8"/>
<path d="M9.23705 9.28128C8.84022 9.28128 8.51853 9.60306 8.51853 10C8.51853 10.3969 8.84022 10.7187 9.23705 10.7187H13.5482C13.945 10.7187 14.2667 10.3969 14.2667 10C14.2667 9.60306 13.945 9.28128 13.5482 9.28128H9.23705Z" fill="#F8F8F8"/>
<path d="M5.64445 10C5.64445 9.60306 5.96614 9.28128 6.36297 9.28128H7.08149C7.47832 9.28128 7.80001 9.60306 7.80001 10C7.80001 10.3969 7.47832 10.7187 7.08149 10.7187H6.36297C5.96614 10.7187 5.64445 10.3969 5.64445 10Z" fill="#F8F8F8"/>
<path d="M9.23705 12.1562C8.84022 12.1562 8.51853 12.478 8.51853 12.8749C8.51853 13.2718 8.84022 13.5936 9.23705 13.5936H13.5482C13.945 13.5936 14.2667 13.2718 14.2667 12.8749C14.2667 12.478 13.945 12.1562 13.5482 12.1562H9.23705Z" fill="#F8F8F8"/>
<path d="M5.64445 12.8749C5.64445 12.478 5.96614 12.1562 6.36297 12.1562H7.08149C7.47832 12.1562 7.80001 12.478 7.80001 12.8749C7.80001 13.2718 7.47832 13.5936 7.08149 13.5936H6.36297C5.96614 13.5936 5.64445 13.2718 5.64445 12.8749Z" fill="#F8F8F8"/>
<path fill-rule="evenodd" clip-rule="evenodd" d="M3.48889 1.37533C2.29841 1.37533 1.33333 2.34067 1.33333 3.53149V16.4685C1.33333 17.6593 2.29841 18.6247 3.48889 18.6247H16.4222C17.6127 18.6247 18.5778 17.6593 18.5778 16.4685V3.53149C18.5778 2.34068 17.6127 1.37533 16.4222 1.37533H3.48889ZM2.77037 3.53149C2.77037 3.13455 3.09206 2.81277 3.48889 2.81277H16.4222C16.8191 2.81277 17.1408 3.13455 17.1408 3.53149V16.4685C17.1408 16.8654 16.8191 17.1872 16.4222 17.1872H3.48889C3.09206 17.1872 2.77037 16.8654 2.77037 16.4685V3.53149Z" fill="#F8F8F8"/>
</g>
</g>
</svg>
